<svg width="173" height="169" viewBox="0 0 173 169" fill="none" xmlns="http://www.w3.org/2000/svg">
<g clip-path="url(#clip0_27_3)">
<path d="M108.13 71.9678C94.0525 93.0705 55.5222 98.2166 43.8255 83.9831C39.4053 78.5963 40.1906 68.961 41.7785 49.6757C43.2292 32.0322 46.6848 26.693 49.1103 23.7792C53.2743 18.8467 58.8989 15.3655 65.1655 13.8201C79.2809 10.4986 91.0189 19.1819 96.0002 22.8677C100.707 26.3459 112.369 34.9743 113.886 49.7293C115.04 61.0126 109.628 69.7124 108.13 71.9678V71.9678Z" stroke="white" stroke-width="4" stroke-miterlimit="10"/>
<path d="M73.9647 81.6592C74.7219 84.4514 80.7888 106.715 68.7955 116.515C62.1224 122.005 52.6708 121.306 45.6345 120.828C40.478 120.579 35.4311 119.262 30.8159 116.95C27.9886 115.514 22.6651 112.795 19.0348 107.066C14.4913 99.9245 15.2187 92.3852 15.6676 87.8073C15.9973 84.3709 17.4291 71.6907 28.0259 62.3572C31.1379 59.6198 39.1306 52.5923 48.9945 54.099C54.9688 55.0119 58.8765 58.6738 62.2947 61.8583C67.9163 67.2802 71.9482 74.1225 73.9647 81.6592V81.6592Z" stroke="#FAB513" stroke-width="4" stroke-miterlimit="10"/>
<path d="M139.53 117.718C142.189 135.907 114.962 163.203 96.8727 156.923C79.9364 151.045 71.7374 115.979 86.5757 101.636C96.9917 91.5727 115.227 95.1979 116.219 95.4077C119.782 96.169 127.253 97.8638 133.127 104.489C136.452 108.218 138.67 112.793 139.53 117.718V117.718Z" stroke="#FFD967" stroke-width="4" stroke-miterlimit="10"/>
</g>
<defs>
<clipPath id="clip0_27_3">
<rect width="132.818" height="126.493" fill="white" transform="translate(121.844 168.907) rotate(-156.545)"/>
</clipPath>
</defs>
</svg>
